<mxfile host="app.diagrams.net" agent="Mozilla/5.0 (Windows NT 10.0; Win64; x64) AppleWebKit/537.36 (KHTML, like Gecko) Chrome/129.0.0.0 Safari/537.36" version="24.7.17">
  <diagram id="R2lEEEUBdFMjLlhIrx00" name="Page-1">
    <mxGraphModel grid="1" page="1" gridSize="10" guides="1" tooltips="1" connect="1" arrows="1" fold="1" pageScale="1" pageWidth="850" pageHeight="1100" math="0" shadow="0" extFonts="Permanent Marker^https://fonts.googleapis.com/css?family=Permanent+Marker">
      <root>
        <mxCell id="0" />
        <mxCell id="1" parent="0" />
        <mxCell id="qGmKelO1uOc2lFueApY_-7" style="edgeStyle=none;shape=connector;rounded=0;orthogonalLoop=1;jettySize=auto;html=1;strokeColor=default;align=center;verticalAlign=middle;fontFamily=Helvetica;fontSize=11;fontColor=default;labelBackgroundColor=default;endArrow=none;endFill=0;" edge="1" parent="1" source="qGmKelO1uOc2lFueApY_-1" target="qGmKelO1uOc2lFueApY_-4">
          <mxGeometry relative="1" as="geometry" />
        </mxCell>
        <mxCell id="qGmKelO1uOc2lFueApY_-8" style="edgeStyle=none;shape=connector;rounded=0;orthogonalLoop=1;jettySize=auto;html=1;strokeColor=default;align=center;verticalAlign=middle;fontFamily=Helvetica;fontSize=11;fontColor=default;labelBackgroundColor=default;endArrow=none;endFill=0;" edge="1" parent="1" source="qGmKelO1uOc2lFueApY_-1" target="qGmKelO1uOc2lFueApY_-3">
          <mxGeometry relative="1" as="geometry" />
        </mxCell>
        <mxCell id="qGmKelO1uOc2lFueApY_-28" style="edgeStyle=none;shape=connector;rounded=0;orthogonalLoop=1;jettySize=auto;html=1;strokeColor=default;align=center;verticalAlign=middle;fontFamily=Helvetica;fontSize=11;fontColor=default;labelBackgroundColor=default;endArrow=none;endFill=0;" edge="1" parent="1" source="qGmKelO1uOc2lFueApY_-1" target="qGmKelO1uOc2lFueApY_-27">
          <mxGeometry relative="1" as="geometry" />
        </mxCell>
        <mxCell id="qGmKelO1uOc2lFueApY_-30" value="(0, N)" style="edgeLabel;html=1;align=center;verticalAlign=middle;resizable=0;points=[];fontFamily=Helvetica;fontSize=11;fontColor=default;labelBackgroundColor=default;" connectable="0" vertex="1" parent="qGmKelO1uOc2lFueApY_-28">
          <mxGeometry x="-0.2625" relative="1" as="geometry">
            <mxPoint x="5" as="offset" />
          </mxGeometry>
        </mxCell>
        <mxCell id="qGmKelO1uOc2lFueApY_-43" style="edgeStyle=none;shape=connector;rounded=0;orthogonalLoop=1;jettySize=auto;html=1;strokeColor=default;align=center;verticalAlign=middle;fontFamily=Helvetica;fontSize=11;fontColor=default;labelBackgroundColor=default;endArrow=none;endFill=0;" edge="1" parent="1" source="qGmKelO1uOc2lFueApY_-1" target="qGmKelO1uOc2lFueApY_-42">
          <mxGeometry relative="1" as="geometry" />
        </mxCell>
        <mxCell id="qGmKelO1uOc2lFueApY_-44" value="(" style="edgeLabel;html=1;align=center;verticalAlign=middle;resizable=0;points=[];fontFamily=Helvetica;fontSize=11;fontColor=default;labelBackgroundColor=default;" connectable="0" vertex="1" parent="qGmKelO1uOc2lFueApY_-43">
          <mxGeometry x="0.0171" y="1" relative="1" as="geometry">
            <mxPoint as="offset" />
          </mxGeometry>
        </mxCell>
        <mxCell id="qGmKelO1uOc2lFueApY_-45" value="(0, N)" style="edgeLabel;html=1;align=center;verticalAlign=middle;resizable=0;points=[];fontFamily=Helvetica;fontSize=11;fontColor=default;labelBackgroundColor=default;" connectable="0" vertex="1" parent="qGmKelO1uOc2lFueApY_-43">
          <mxGeometry x="0.0552" relative="1" as="geometry">
            <mxPoint as="offset" />
          </mxGeometry>
        </mxCell>
        <mxCell id="qGmKelO1uOc2lFueApY_-65" style="edgeStyle=none;shape=connector;rounded=0;orthogonalLoop=1;jettySize=auto;html=1;strokeColor=default;align=center;verticalAlign=middle;fontFamily=Helvetica;fontSize=11;fontColor=default;labelBackgroundColor=default;endArrow=none;endFill=0;" edge="1" parent="1" source="qGmKelO1uOc2lFueApY_-1" target="qGmKelO1uOc2lFueApY_-64">
          <mxGeometry relative="1" as="geometry" />
        </mxCell>
        <mxCell id="qGmKelO1uOc2lFueApY_-67" value="(0, N)" style="edgeLabel;html=1;align=center;verticalAlign=middle;resizable=0;points=[];fontFamily=Helvetica;fontSize=11;fontColor=default;labelBackgroundColor=default;" connectable="0" vertex="1" parent="qGmKelO1uOc2lFueApY_-65">
          <mxGeometry x="0.0403" relative="1" as="geometry">
            <mxPoint as="offset" />
          </mxGeometry>
        </mxCell>
        <mxCell id="qGmKelO1uOc2lFueApY_-1" value="User" style="whiteSpace=wrap;html=1;align=center;" vertex="1" parent="1">
          <mxGeometry x="140" y="140" width="100" height="40" as="geometry" />
        </mxCell>
        <mxCell id="qGmKelO1uOc2lFueApY_-2" value="User ID" style="ellipse;whiteSpace=wrap;html=1;align=center;fontStyle=4;" vertex="1" parent="1">
          <mxGeometry x="140" y="50" width="100" height="40" as="geometry" />
        </mxCell>
        <mxCell id="qGmKelO1uOc2lFueApY_-3" value="Username" style="ellipse;whiteSpace=wrap;html=1;align=center;" vertex="1" parent="1">
          <mxGeometry x="210" y="90" width="100" height="40" as="geometry" />
        </mxCell>
        <mxCell id="qGmKelO1uOc2lFueApY_-4" value="User Tag" style="ellipse;whiteSpace=wrap;html=1;align=center;" vertex="1" parent="1">
          <mxGeometry x="60" y="90" width="100" height="40" as="geometry" />
        </mxCell>
        <mxCell id="qGmKelO1uOc2lFueApY_-5" style="rounded=0;orthogonalLoop=1;jettySize=auto;html=1;endArrow=none;endFill=0;" edge="1" parent="1" source="qGmKelO1uOc2lFueApY_-1" target="qGmKelO1uOc2lFueApY_-2">
          <mxGeometry relative="1" as="geometry" />
        </mxCell>
        <mxCell id="qGmKelO1uOc2lFueApY_-13" style="edgeStyle=none;shape=connector;rounded=0;orthogonalLoop=1;jettySize=auto;html=1;strokeColor=default;align=center;verticalAlign=middle;fontFamily=Helvetica;fontSize=11;fontColor=default;labelBackgroundColor=default;endArrow=none;endFill=0;" edge="1" parent="1" source="qGmKelO1uOc2lFueApY_-9" target="qGmKelO1uOc2lFueApY_-12">
          <mxGeometry relative="1" as="geometry" />
        </mxCell>
        <mxCell id="qGmKelO1uOc2lFueApY_-14" style="edgeStyle=none;shape=connector;rounded=0;orthogonalLoop=1;jettySize=auto;html=1;strokeColor=default;align=center;verticalAlign=middle;fontFamily=Helvetica;fontSize=11;fontColor=default;labelBackgroundColor=default;endArrow=none;endFill=0;" edge="1" parent="1" source="qGmKelO1uOc2lFueApY_-9" target="qGmKelO1uOc2lFueApY_-10">
          <mxGeometry relative="1" as="geometry" />
        </mxCell>
        <mxCell id="qGmKelO1uOc2lFueApY_-15" style="edgeStyle=none;shape=connector;rounded=0;orthogonalLoop=1;jettySize=auto;html=1;strokeColor=default;align=center;verticalAlign=middle;fontFamily=Helvetica;fontSize=11;fontColor=default;labelBackgroundColor=default;endArrow=none;endFill=0;" edge="1" parent="1" source="qGmKelO1uOc2lFueApY_-9" target="qGmKelO1uOc2lFueApY_-11">
          <mxGeometry relative="1" as="geometry" />
        </mxCell>
        <mxCell id="qGmKelO1uOc2lFueApY_-33" style="edgeStyle=none;shape=connector;rounded=0;orthogonalLoop=1;jettySize=auto;html=1;strokeColor=default;align=center;verticalAlign=middle;fontFamily=Helvetica;fontSize=11;fontColor=default;labelBackgroundColor=default;endArrow=none;endFill=0;" edge="1" parent="1" source="qGmKelO1uOc2lFueApY_-9" target="qGmKelO1uOc2lFueApY_-32">
          <mxGeometry relative="1" as="geometry" />
        </mxCell>
        <mxCell id="qGmKelO1uOc2lFueApY_-35" value="(1, N)" style="edgeLabel;html=1;align=center;verticalAlign=middle;resizable=0;points=[];fontFamily=Helvetica;fontSize=11;fontColor=default;labelBackgroundColor=default;" connectable="0" vertex="1" parent="qGmKelO1uOc2lFueApY_-33">
          <mxGeometry x="0.2467" y="-2" relative="1" as="geometry">
            <mxPoint x="2" as="offset" />
          </mxGeometry>
        </mxCell>
        <mxCell id="qGmKelO1uOc2lFueApY_-38" style="edgeStyle=none;shape=connector;rounded=0;orthogonalLoop=1;jettySize=auto;html=1;strokeColor=default;align=center;verticalAlign=middle;fontFamily=Helvetica;fontSize=11;fontColor=default;labelBackgroundColor=default;endArrow=none;endFill=0;" edge="1" parent="1" source="qGmKelO1uOc2lFueApY_-9" target="qGmKelO1uOc2lFueApY_-37">
          <mxGeometry relative="1" as="geometry" />
        </mxCell>
        <mxCell id="qGmKelO1uOc2lFueApY_-39" value="(0, N)" style="edgeLabel;html=1;align=center;verticalAlign=middle;resizable=0;points=[];fontFamily=Helvetica;fontSize=11;fontColor=default;labelBackgroundColor=default;" connectable="0" vertex="1" parent="qGmKelO1uOc2lFueApY_-38">
          <mxGeometry x="0.1014" y="-4" relative="1" as="geometry">
            <mxPoint x="5" y="-2" as="offset" />
          </mxGeometry>
        </mxCell>
        <mxCell id="qGmKelO1uOc2lFueApY_-9" value="Guild" style="whiteSpace=wrap;html=1;align=center;fontFamily=Helvetica;fontSize=11;fontColor=default;labelBackgroundColor=default;" vertex="1" parent="1">
          <mxGeometry x="440" y="140" width="100" height="40" as="geometry" />
        </mxCell>
        <mxCell id="qGmKelO1uOc2lFueApY_-10" value="Guild ID" style="ellipse;whiteSpace=wrap;html=1;align=center;fontStyle=4;fontFamily=Helvetica;fontSize=11;fontColor=default;labelBackgroundColor=default;" vertex="1" parent="1">
          <mxGeometry x="530" y="80" width="100" height="40" as="geometry" />
        </mxCell>
        <mxCell id="qGmKelO1uOc2lFueApY_-11" value="Guild Name" style="ellipse;whiteSpace=wrap;html=1;align=center;fontFamily=Helvetica;fontSize=11;fontColor=default;labelBackgroundColor=default;" vertex="1" parent="1">
          <mxGeometry x="560" y="130" width="100" height="40" as="geometry" />
        </mxCell>
        <mxCell id="qGmKelO1uOc2lFueApY_-12" value="Permissions" style="ellipse;whiteSpace=wrap;html=1;align=center;fontFamily=Helvetica;fontSize=11;fontColor=default;labelBackgroundColor=default;" vertex="1" parent="1">
          <mxGeometry x="425" y="90" width="100" height="40" as="geometry" />
        </mxCell>
        <mxCell id="qGmKelO1uOc2lFueApY_-19" style="edgeStyle=none;shape=connector;rounded=0;orthogonalLoop=1;jettySize=auto;html=1;strokeColor=default;align=center;verticalAlign=middle;fontFamily=Helvetica;fontSize=11;fontColor=default;labelBackgroundColor=default;endArrow=none;endFill=0;" edge="1" parent="1" source="qGmKelO1uOc2lFueApY_-16" target="qGmKelO1uOc2lFueApY_-17">
          <mxGeometry relative="1" as="geometry" />
        </mxCell>
        <mxCell id="qGmKelO1uOc2lFueApY_-20" style="edgeStyle=none;shape=connector;rounded=0;orthogonalLoop=1;jettySize=auto;html=1;strokeColor=default;align=center;verticalAlign=middle;fontFamily=Helvetica;fontSize=11;fontColor=default;labelBackgroundColor=default;endArrow=none;endFill=0;" edge="1" parent="1" source="qGmKelO1uOc2lFueApY_-16" target="qGmKelO1uOc2lFueApY_-18">
          <mxGeometry relative="1" as="geometry" />
        </mxCell>
        <mxCell id="qGmKelO1uOc2lFueApY_-16" value="Role" style="whiteSpace=wrap;html=1;align=center;fontFamily=Helvetica;fontSize=11;fontColor=default;labelBackgroundColor=default;" vertex="1" parent="1">
          <mxGeometry x="440" y="300" width="100" height="40" as="geometry" />
        </mxCell>
        <mxCell id="qGmKelO1uOc2lFueApY_-17" value="Role ID" style="ellipse;whiteSpace=wrap;html=1;align=center;fontStyle=4;fontFamily=Helvetica;fontSize=11;fontColor=default;labelBackgroundColor=default;" vertex="1" parent="1">
          <mxGeometry x="525" y="350" width="100" height="40" as="geometry" />
        </mxCell>
        <mxCell id="qGmKelO1uOc2lFueApY_-18" value="Permissions" style="ellipse;whiteSpace=wrap;html=1;align=center;fontFamily=Helvetica;fontSize=11;fontColor=default;labelBackgroundColor=default;" vertex="1" parent="1">
          <mxGeometry x="410" y="360" width="100" height="40" as="geometry" />
        </mxCell>
        <mxCell id="qGmKelO1uOc2lFueApY_-25" style="edgeStyle=none;shape=connector;rounded=0;orthogonalLoop=1;jettySize=auto;html=1;strokeColor=default;align=center;verticalAlign=middle;fontFamily=Helvetica;fontSize=11;fontColor=default;labelBackgroundColor=default;endArrow=none;endFill=0;" edge="1" parent="1" source="qGmKelO1uOc2lFueApY_-21" target="qGmKelO1uOc2lFueApY_-23">
          <mxGeometry relative="1" as="geometry" />
        </mxCell>
        <mxCell id="qGmKelO1uOc2lFueApY_-26" style="edgeStyle=none;shape=connector;rounded=0;orthogonalLoop=1;jettySize=auto;html=1;strokeColor=default;align=center;verticalAlign=middle;fontFamily=Helvetica;fontSize=11;fontColor=default;labelBackgroundColor=default;endArrow=none;endFill=0;" edge="1" parent="1" source="qGmKelO1uOc2lFueApY_-21" target="qGmKelO1uOc2lFueApY_-24">
          <mxGeometry relative="1" as="geometry" />
        </mxCell>
        <mxCell id="qGmKelO1uOc2lFueApY_-54" style="edgeStyle=none;shape=connector;rounded=0;orthogonalLoop=1;jettySize=auto;html=1;strokeColor=default;align=center;verticalAlign=middle;fontFamily=Helvetica;fontSize=11;fontColor=default;labelBackgroundColor=default;endArrow=none;endFill=0;" edge="1" parent="1" source="qGmKelO1uOc2lFueApY_-21" target="qGmKelO1uOc2lFueApY_-53">
          <mxGeometry relative="1" as="geometry" />
        </mxCell>
        <mxCell id="qGmKelO1uOc2lFueApY_-55" value="(0, N)" style="edgeLabel;html=1;align=center;verticalAlign=middle;resizable=0;points=[];fontFamily=Helvetica;fontSize=11;fontColor=default;labelBackgroundColor=default;" connectable="0" vertex="1" parent="qGmKelO1uOc2lFueApY_-54">
          <mxGeometry x="0.0563" relative="1" as="geometry">
            <mxPoint as="offset" />
          </mxGeometry>
        </mxCell>
        <mxCell id="qGmKelO1uOc2lFueApY_-21" value="Board" style="whiteSpace=wrap;html=1;align=center;fontFamily=Helvetica;fontSize=11;fontColor=default;labelBackgroundColor=default;" vertex="1" parent="1">
          <mxGeometry x="140" y="350" width="100" height="40" as="geometry" />
        </mxCell>
        <mxCell id="qGmKelO1uOc2lFueApY_-23" value="Board ID" style="ellipse;whiteSpace=wrap;html=1;align=center;fontStyle=4;fontFamily=Helvetica;fontSize=11;fontColor=default;labelBackgroundColor=default;" vertex="1" parent="1">
          <mxGeometry x="140" y="410" width="100" height="40" as="geometry" />
        </mxCell>
        <mxCell id="qGmKelO1uOc2lFueApY_-24" value="Permissions" style="ellipse;whiteSpace=wrap;html=1;align=center;fontFamily=Helvetica;fontSize=11;fontColor=default;labelBackgroundColor=default;" vertex="1" parent="1">
          <mxGeometry x="250" y="390" width="100" height="40" as="geometry" />
        </mxCell>
        <mxCell id="qGmKelO1uOc2lFueApY_-29" style="edgeStyle=none;shape=connector;rounded=0;orthogonalLoop=1;jettySize=auto;html=1;strokeColor=default;align=center;verticalAlign=middle;fontFamily=Helvetica;fontSize=11;fontColor=default;labelBackgroundColor=default;endArrow=none;endFill=0;" edge="1" parent="1" source="qGmKelO1uOc2lFueApY_-27" target="qGmKelO1uOc2lFueApY_-9">
          <mxGeometry relative="1" as="geometry" />
        </mxCell>
        <mxCell id="qGmKelO1uOc2lFueApY_-31" value="(1, N)" style="edgeLabel;html=1;align=center;verticalAlign=middle;resizable=0;points=[];fontFamily=Helvetica;fontSize=11;fontColor=default;labelBackgroundColor=default;" connectable="0" vertex="1" parent="qGmKelO1uOc2lFueApY_-29">
          <mxGeometry x="-0.1188" y="-1" relative="1" as="geometry">
            <mxPoint y="-1" as="offset" />
          </mxGeometry>
        </mxCell>
        <mxCell id="qGmKelO1uOc2lFueApY_-27" value="Is in" style="shape=rhombus;perimeter=rhombusPerimeter;whiteSpace=wrap;html=1;align=center;fontFamily=Helvetica;fontSize=11;fontColor=default;labelBackgroundColor=default;" vertex="1" parent="1">
          <mxGeometry x="280" y="130" width="120" height="60" as="geometry" />
        </mxCell>
        <mxCell id="qGmKelO1uOc2lFueApY_-34" style="edgeStyle=none;shape=connector;rounded=0;orthogonalLoop=1;jettySize=auto;html=1;strokeColor=default;align=center;verticalAlign=middle;fontFamily=Helvetica;fontSize=11;fontColor=default;labelBackgroundColor=default;endArrow=none;endFill=0;" edge="1" parent="1" source="qGmKelO1uOc2lFueApY_-32" target="qGmKelO1uOc2lFueApY_-16">
          <mxGeometry relative="1" as="geometry" />
        </mxCell>
        <mxCell id="qGmKelO1uOc2lFueApY_-36" value="(1,1)" style="edgeLabel;html=1;align=center;verticalAlign=middle;resizable=0;points=[];fontFamily=Helvetica;fontSize=11;fontColor=default;labelBackgroundColor=default;" connectable="0" vertex="1" parent="qGmKelO1uOc2lFueApY_-34">
          <mxGeometry x="-0.12" y="2" relative="1" as="geometry">
            <mxPoint x="-2" as="offset" />
          </mxGeometry>
        </mxCell>
        <mxCell id="qGmKelO1uOc2lFueApY_-32" value="Has" style="shape=rhombus;perimeter=rhombusPerimeter;whiteSpace=wrap;html=1;align=center;fontFamily=Helvetica;fontSize=11;fontColor=default;labelBackgroundColor=default;" vertex="1" parent="1">
          <mxGeometry x="430" y="210" width="120" height="60" as="geometry" />
        </mxCell>
        <mxCell id="qGmKelO1uOc2lFueApY_-40" style="edgeStyle=none;shape=connector;rounded=0;orthogonalLoop=1;jettySize=auto;html=1;strokeColor=default;align=center;verticalAlign=middle;fontFamily=Helvetica;fontSize=11;fontColor=default;labelBackgroundColor=default;endArrow=none;endFill=0;" edge="1" parent="1" source="qGmKelO1uOc2lFueApY_-37" target="qGmKelO1uOc2lFueApY_-21">
          <mxGeometry relative="1" as="geometry" />
        </mxCell>
        <mxCell id="qGmKelO1uOc2lFueApY_-41" value="(1, 1)" style="edgeLabel;html=1;align=center;verticalAlign=middle;resizable=0;points=[];fontFamily=Helvetica;fontSize=11;fontColor=default;labelBackgroundColor=default;" connectable="0" vertex="1" parent="qGmKelO1uOc2lFueApY_-40">
          <mxGeometry x="-0.1384" y="-1" relative="1" as="geometry">
            <mxPoint as="offset" />
          </mxGeometry>
        </mxCell>
        <mxCell id="qGmKelO1uOc2lFueApY_-37" value="Has" style="shape=rhombus;perimeter=rhombusPerimeter;whiteSpace=wrap;html=1;align=center;fontFamily=Helvetica;fontSize=11;fontColor=default;labelBackgroundColor=default;" vertex="1" parent="1">
          <mxGeometry x="260" y="250" width="120" height="60" as="geometry" />
        </mxCell>
        <mxCell id="qGmKelO1uOc2lFueApY_-46" style="edgeStyle=none;shape=connector;rounded=0;orthogonalLoop=1;jettySize=auto;html=1;strokeColor=default;align=center;verticalAlign=middle;fontFamily=Helvetica;fontSize=11;fontColor=default;labelBackgroundColor=default;endArrow=none;endFill=0;" edge="1" parent="1" source="qGmKelO1uOc2lFueApY_-42" target="qGmKelO1uOc2lFueApY_-21">
          <mxGeometry relative="1" as="geometry" />
        </mxCell>
        <mxCell id="qGmKelO1uOc2lFueApY_-47" value="(1, 1)" style="edgeLabel;html=1;align=center;verticalAlign=middle;resizable=0;points=[];fontFamily=Helvetica;fontSize=11;fontColor=default;labelBackgroundColor=default;" connectable="0" vertex="1" parent="qGmKelO1uOc2lFueApY_-46">
          <mxGeometry x="-0.073" y="-1" relative="1" as="geometry">
            <mxPoint as="offset" />
          </mxGeometry>
        </mxCell>
        <mxCell id="qGmKelO1uOc2lFueApY_-42" value="Creates" style="shape=rhombus;perimeter=rhombusPerimeter;whiteSpace=wrap;html=1;align=center;fontFamily=Helvetica;fontSize=11;fontColor=default;labelBackgroundColor=default;" vertex="1" parent="1">
          <mxGeometry x="130" y="230" width="120" height="60" as="geometry" />
        </mxCell>
        <mxCell id="qGmKelO1uOc2lFueApY_-51" style="edgeStyle=none;shape=connector;rounded=0;orthogonalLoop=1;jettySize=auto;html=1;strokeColor=default;align=center;verticalAlign=middle;fontFamily=Helvetica;fontSize=11;fontColor=default;labelBackgroundColor=default;endArrow=none;endFill=0;" edge="1" parent="1" source="qGmKelO1uOc2lFueApY_-48" target="qGmKelO1uOc2lFueApY_-49">
          <mxGeometry relative="1" as="geometry" />
        </mxCell>
        <mxCell id="qGmKelO1uOc2lFueApY_-52" style="edgeStyle=none;shape=connector;rounded=0;orthogonalLoop=1;jettySize=auto;html=1;strokeColor=default;align=center;verticalAlign=middle;fontFamily=Helvetica;fontSize=11;fontColor=default;labelBackgroundColor=default;endArrow=none;endFill=0;" edge="1" parent="1" source="qGmKelO1uOc2lFueApY_-48" target="qGmKelO1uOc2lFueApY_-50">
          <mxGeometry relative="1" as="geometry" />
        </mxCell>
        <mxCell id="qGmKelO1uOc2lFueApY_-60" style="edgeStyle=none;shape=connector;rounded=0;orthogonalLoop=1;jettySize=auto;html=1;strokeColor=default;align=center;verticalAlign=middle;fontFamily=Helvetica;fontSize=11;fontColor=default;labelBackgroundColor=default;endArrow=none;endFill=0;" edge="1" parent="1" source="qGmKelO1uOc2lFueApY_-48" target="qGmKelO1uOc2lFueApY_-59">
          <mxGeometry relative="1" as="geometry" />
        </mxCell>
        <mxCell id="qGmKelO1uOc2lFueApY_-62" value="(0, N)" style="edgeLabel;html=1;align=center;verticalAlign=middle;resizable=0;points=[];fontFamily=Helvetica;fontSize=11;fontColor=default;labelBackgroundColor=default;" connectable="0" vertex="1" parent="qGmKelO1uOc2lFueApY_-60">
          <mxGeometry x="-0.0075" relative="1" as="geometry">
            <mxPoint as="offset" />
          </mxGeometry>
        </mxCell>
        <mxCell id="qGmKelO1uOc2lFueApY_-48" value="Column" style="whiteSpace=wrap;html=1;align=center;fontFamily=Helvetica;fontSize=11;fontColor=default;labelBackgroundColor=default;" vertex="1" parent="1">
          <mxGeometry x="-160" y="350" width="100" height="40" as="geometry" />
        </mxCell>
        <mxCell id="qGmKelO1uOc2lFueApY_-49" value="Column ID" style="ellipse;whiteSpace=wrap;html=1;align=center;fontStyle=4;fontFamily=Helvetica;fontSize=11;fontColor=default;labelBackgroundColor=default;" vertex="1" parent="1">
          <mxGeometry x="-160" y="410" width="100" height="40" as="geometry" />
        </mxCell>
        <mxCell id="qGmKelO1uOc2lFueApY_-50" value="Column Name" style="ellipse;whiteSpace=wrap;html=1;align=center;fontFamily=Helvetica;fontSize=11;fontColor=default;labelBackgroundColor=default;" vertex="1" parent="1">
          <mxGeometry x="-270" y="390" width="100" height="40" as="geometry" />
        </mxCell>
        <mxCell id="qGmKelO1uOc2lFueApY_-56" style="edgeStyle=none;shape=connector;rounded=0;orthogonalLoop=1;jettySize=auto;html=1;strokeColor=default;align=center;verticalAlign=middle;fontFamily=Helvetica;fontSize=11;fontColor=default;labelBackgroundColor=default;endArrow=none;endFill=0;" edge="1" parent="1" source="qGmKelO1uOc2lFueApY_-53" target="qGmKelO1uOc2lFueApY_-48">
          <mxGeometry relative="1" as="geometry" />
        </mxCell>
        <mxCell id="qGmKelO1uOc2lFueApY_-57" value="(1, 1)" style="edgeLabel;html=1;align=center;verticalAlign=middle;resizable=0;points=[];fontFamily=Helvetica;fontSize=11;fontColor=default;labelBackgroundColor=default;" connectable="0" vertex="1" parent="qGmKelO1uOc2lFueApY_-56">
          <mxGeometry x="-0.0281" relative="1" as="geometry">
            <mxPoint as="offset" />
          </mxGeometry>
        </mxCell>
        <mxCell id="qGmKelO1uOc2lFueApY_-53" value="Has" style="shape=rhombus;perimeter=rhombusPerimeter;whiteSpace=wrap;html=1;align=center;fontFamily=Helvetica;fontSize=11;fontColor=default;labelBackgroundColor=default;" vertex="1" parent="1">
          <mxGeometry x="-20" y="340" width="120" height="60" as="geometry" />
        </mxCell>
        <mxCell id="qGmKelO1uOc2lFueApY_-75" style="edgeStyle=none;shape=connector;rounded=0;orthogonalLoop=1;jettySize=auto;html=1;strokeColor=default;align=center;verticalAlign=middle;fontFamily=Helvetica;fontSize=11;fontColor=default;labelBackgroundColor=default;endArrow=none;endFill=0;" edge="1" parent="1" source="qGmKelO1uOc2lFueApY_-58" target="qGmKelO1uOc2lFueApY_-69">
          <mxGeometry relative="1" as="geometry" />
        </mxCell>
        <mxCell id="qGmKelO1uOc2lFueApY_-76" style="edgeStyle=none;shape=connector;rounded=0;orthogonalLoop=1;jettySize=auto;html=1;strokeColor=default;align=center;verticalAlign=middle;fontFamily=Helvetica;fontSize=11;fontColor=default;labelBackgroundColor=default;endArrow=none;endFill=0;" edge="1" parent="1" source="qGmKelO1uOc2lFueApY_-58" target="qGmKelO1uOc2lFueApY_-71">
          <mxGeometry relative="1" as="geometry" />
        </mxCell>
        <mxCell id="qGmKelO1uOc2lFueApY_-77" style="edgeStyle=none;shape=connector;rounded=0;orthogonalLoop=1;jettySize=auto;html=1;strokeColor=default;align=center;verticalAlign=middle;fontFamily=Helvetica;fontSize=11;fontColor=default;labelBackgroundColor=default;endArrow=none;endFill=0;" edge="1" parent="1" source="qGmKelO1uOc2lFueApY_-58" target="qGmKelO1uOc2lFueApY_-72">
          <mxGeometry relative="1" as="geometry" />
        </mxCell>
        <mxCell id="qGmKelO1uOc2lFueApY_-78" style="edgeStyle=none;shape=connector;rounded=0;orthogonalLoop=1;jettySize=auto;html=1;strokeColor=default;align=center;verticalAlign=middle;fontFamily=Helvetica;fontSize=11;fontColor=default;labelBackgroundColor=default;endArrow=none;endFill=0;" edge="1" parent="1" source="qGmKelO1uOc2lFueApY_-58" target="qGmKelO1uOc2lFueApY_-74">
          <mxGeometry relative="1" as="geometry" />
        </mxCell>
        <mxCell id="qGmKelO1uOc2lFueApY_-58" value="Task" style="whiteSpace=wrap;html=1;align=center;fontFamily=Helvetica;fontSize=11;fontColor=default;labelBackgroundColor=default;" vertex="1" parent="1">
          <mxGeometry x="-160" y="140" width="100" height="40" as="geometry" />
        </mxCell>
        <mxCell id="qGmKelO1uOc2lFueApY_-61" style="edgeStyle=none;shape=connector;rounded=0;orthogonalLoop=1;jettySize=auto;html=1;strokeColor=default;align=center;verticalAlign=middle;fontFamily=Helvetica;fontSize=11;fontColor=default;labelBackgroundColor=default;endArrow=none;endFill=0;" edge="1" parent="1" source="qGmKelO1uOc2lFueApY_-59" target="qGmKelO1uOc2lFueApY_-58">
          <mxGeometry relative="1" as="geometry" />
        </mxCell>
        <mxCell id="qGmKelO1uOc2lFueApY_-63" value="(1, 1)" style="edgeLabel;html=1;align=center;verticalAlign=middle;resizable=0;points=[];fontFamily=Helvetica;fontSize=11;fontColor=default;labelBackgroundColor=default;" connectable="0" vertex="1" parent="qGmKelO1uOc2lFueApY_-61">
          <mxGeometry x="0.0361" relative="1" as="geometry">
            <mxPoint as="offset" />
          </mxGeometry>
        </mxCell>
        <mxCell id="qGmKelO1uOc2lFueApY_-59" value="Has" style="shape=rhombus;perimeter=rhombusPerimeter;whiteSpace=wrap;html=1;align=center;fontFamily=Helvetica;fontSize=11;fontColor=default;labelBackgroundColor=default;" vertex="1" parent="1">
          <mxGeometry x="-170" y="230" width="120" height="60" as="geometry" />
        </mxCell>
        <mxCell id="qGmKelO1uOc2lFueApY_-66" style="edgeStyle=none;shape=connector;rounded=0;orthogonalLoop=1;jettySize=auto;html=1;strokeColor=default;align=center;verticalAlign=middle;fontFamily=Helvetica;fontSize=11;fontColor=default;labelBackgroundColor=default;endArrow=none;endFill=0;" edge="1" parent="1" source="qGmKelO1uOc2lFueApY_-64" target="qGmKelO1uOc2lFueApY_-58">
          <mxGeometry relative="1" as="geometry" />
        </mxCell>
        <mxCell id="qGmKelO1uOc2lFueApY_-68" value="(0, N)" style="edgeLabel;html=1;align=center;verticalAlign=middle;resizable=0;points=[];fontFamily=Helvetica;fontSize=11;fontColor=default;labelBackgroundColor=default;" connectable="0" vertex="1" parent="qGmKelO1uOc2lFueApY_-66">
          <mxGeometry x="0.0403" relative="1" as="geometry">
            <mxPoint as="offset" />
          </mxGeometry>
        </mxCell>
        <mxCell id="qGmKelO1uOc2lFueApY_-64" value="Is Assigned to" style="shape=rhombus;perimeter=rhombusPerimeter;whiteSpace=wrap;html=1;align=center;fontFamily=Helvetica;fontSize=11;fontColor=default;labelBackgroundColor=default;" vertex="1" parent="1">
          <mxGeometry x="-20" y="130" width="120" height="60" as="geometry" />
        </mxCell>
        <mxCell id="qGmKelO1uOc2lFueApY_-69" value="Task ID" style="ellipse;whiteSpace=wrap;html=1;align=center;fontStyle=4;fontFamily=Helvetica;fontSize=11;fontColor=default;labelBackgroundColor=default;" vertex="1" parent="1">
          <mxGeometry x="-170" y="80" width="100" height="40" as="geometry" />
        </mxCell>
        <mxCell id="qGmKelO1uOc2lFueApY_-71" value="Title" style="ellipse;whiteSpace=wrap;html=1;align=center;fontFamily=Helvetica;fontSize=11;fontColor=default;labelBackgroundColor=default;" vertex="1" parent="1">
          <mxGeometry x="-280" y="90" width="100" height="40" as="geometry" />
        </mxCell>
        <mxCell id="qGmKelO1uOc2lFueApY_-72" value="Description" style="ellipse;whiteSpace=wrap;html=1;align=center;fontFamily=Helvetica;fontSize=11;fontColor=default;labelBackgroundColor=default;" vertex="1" parent="1">
          <mxGeometry x="-320" y="140" width="100" height="40" as="geometry" />
        </mxCell>
        <mxCell id="qGmKelO1uOc2lFueApY_-74" value="Due Date" style="ellipse;whiteSpace=wrap;html=1;align=center;fontFamily=Helvetica;fontSize=11;fontColor=default;labelBackgroundColor=default;" vertex="1" parent="1">
          <mxGeometry x="-300" y="200" width="100" height="40" as="geometry" />
        </mxCell>
        <mxCell id="T0KrB81YaPvpOle39-FV-1" value="Settings" style="ellipse;whiteSpace=wrap;html=1;align=center;fontFamily=Helvetica;fontSize=11;fontColor=default;labelBackgroundColor=default;" vertex="1" parent="1">
          <mxGeometry x="560" y="180" width="100" height="40" as="geometry" />
        </mxCell>
        <mxCell id="T0KrB81YaPvpOle39-FV-3" style="edgeStyle=none;shape=connector;rounded=0;orthogonalLoop=1;jettySize=auto;html=1;strokeColor=default;align=center;verticalAlign=middle;fontFamily=Helvetica;fontSize=11;fontColor=default;labelBackgroundColor=default;endArrow=none;endFill=0;" edge="1" parent="1" source="qGmKelO1uOc2lFueApY_-9" target="T0KrB81YaPvpOle39-FV-1">
          <mxGeometry relative="1" as="geometry">
            <mxPoint x="550" y="166" as="sourcePoint" />
            <mxPoint x="571" y="164" as="targetPoint" />
          </mxGeometry>
        </mxCell>
      </root>
    </mxGraphModel>
  </diagram>
</mxfile>
